<svg width="100" height="32" viewBox="0 0 100 32" fill="none" xmlns="http://www.w3.org/2000/svg">
<path d="M95 0H31V32H95C97.7614 32 100 29.7614 100 27V5C100 2.23858 97.7614 0 95 0Z" fill="#0F1418"/>
<path d="M5 0.5H30.5V31.5H5C2.51472 31.5 0.5 29.4853 0.5 27V5C0.5 2.51472 2.51472 0.5 5 0.5Z" fill="white" stroke="#151A1E"/>
<g clip-path="url(#clip0)">
<path d="M16 28C22.4949 28 27.76 22.7348 27.76 16.24C27.76 9.74511 22.4949 4.47998 16 4.47998C9.50513 4.47998 4.24 9.74511 4.24 16.24C4.24 22.7348 9.50513 28 16 28Z" fill="#20C4CB"/>
<path d="M19.048 18.2078C18.568 18.7358 17.896 18.9998 17.584 18.9998C17.224 18.9998 17.032 18.7838 16.984 18.4478C16.96 18.3278 16.984 18.1838 17.008 18.0638C17.128 17.3198 17.392 16.8398 17.392 16.7198C17.392 16.6718 17.368 16.6478 17.344 16.6478C17.104 16.6478 16.288 17.4878 16.168 18.0398L16.072 18.4958C16 18.8078 15.712 18.9998 15.496 18.9998C15.4 18.9998 15.328 18.9518 15.304 18.8318C15.304 18.7838 15.304 18.7358 15.304 18.6878L15.352 18.4478C14.92 18.7838 14.44 18.9998 14.224 18.9998C13.912 18.9998 13.744 18.8318 13.696 18.5918C13.504 18.8558 13.24 18.9998 12.952 18.9998C12.592 18.9998 12.256 18.7598 12.088 18.3998C11.848 18.6638 11.56 18.9278 11.224 19.1438C10.72 19.4558 10.168 19.7198 9.52 19.7198C8.92 19.7198 8.392 19.4078 8.128 19.1438C7.696 18.7598 7.48 18.1598 7.408 17.6318C7.192 15.9518 8.224 13.7198 9.832 12.7598C10.192 12.5438 10.6 12.4238 10.984 12.4238C11.752 12.4238 12.328 12.9758 12.4 13.6238C12.472 14.2238 12.232 14.7278 11.584 15.0398C11.248 15.2078 11.08 15.2078 11.032 15.1118C11.008 15.0638 11.008 14.9678 11.08 14.9198C11.704 14.4158 11.704 13.9838 11.632 13.3838C11.584 12.9998 11.344 12.7598 11.056 12.7598C9.808 12.7598 8.08 15.4718 8.32 17.4398C8.416 18.2078 8.896 19.0958 9.856 19.0958C10.168 19.0958 10.528 18.9998 10.816 18.8558C11.344 18.5918 11.656 18.3758 11.944 18.0158C11.872 17.1038 12.664 15.9518 13.816 15.9518C14.32 15.9518 14.728 16.1438 14.776 16.5518C14.848 17.0558 14.416 17.1518 14.248 17.1518C14.104 17.1518 13.888 17.1038 13.864 16.9838C13.84 16.8398 14.176 16.9118 14.128 16.5998C14.104 16.4078 13.888 16.3358 13.696 16.3358C12.976 16.3358 12.568 17.3438 12.64 17.9678C12.664 18.2558 12.832 18.5438 13.072 18.5438C13.288 18.5438 13.6 18.2318 13.696 17.7998C13.768 17.4878 14.056 17.2958 14.272 17.2958C14.392 17.2958 14.464 17.3438 14.464 17.4638C14.464 17.5118 14.464 17.5598 14.464 17.6078C14.44 17.7278 14.344 18.1838 14.344 18.2558C14.344 18.3278 14.392 18.4478 14.536 18.4478C14.656 18.4478 15.04 18.2318 15.424 17.8958C15.544 17.2958 15.688 16.5518 15.688 16.5038C15.736 16.2638 15.832 15.9998 16.312 15.9998C16.408 15.9998 16.48 16.0478 16.504 16.1678C16.504 16.2158 16.504 16.2638 16.504 16.3118L16.384 16.9598C16.816 16.3838 17.488 15.9518 17.896 15.9518C18.064 15.9518 18.208 16.0478 18.232 16.2158C18.256 16.3118 18.208 16.4798 18.16 16.6718C18.016 17.0558 17.848 17.6558 17.752 18.1598C17.728 18.2798 17.776 18.4238 17.968 18.4238C18.136 18.4238 18.64 18.2318 19.048 17.6798C19.048 17.6078 19.048 17.5358 19.048 17.4398C19.048 17.0078 19.072 16.6718 19.168 16.4078C19.24 16.1438 19.576 15.9038 19.792 15.9038C19.912 15.9038 19.984 15.9758 19.984 16.0958C19.984 16.1438 19.984 16.1918 19.96 16.2398C19.816 16.6958 19.72 17.1038 19.72 17.5118C19.72 17.7518 19.768 18.1118 19.816 18.3038C19.816 18.3518 19.84 18.3758 19.888 18.3758C19.96 18.3758 20.44 17.9198 20.776 17.3438C20.464 17.1518 20.296 16.7918 20.296 16.3598C20.296 15.6398 20.728 15.2558 21.16 15.2558C21.496 15.2558 21.784 15.4958 21.784 15.9758C21.784 16.2878 21.664 16.6238 21.496 16.9598C21.496 16.9598 21.568 16.9598 21.592 16.9598C21.856 16.9598 22.048 16.8398 22.168 16.6958C22.216 16.6478 22.264 16.5998 22.312 16.5758C22.648 16.1678 23.152 15.8798 23.728 15.8798C24.232 15.8798 24.64 16.0718 24.688 16.4798C24.76 16.9838 24.304 17.1038 24.16 17.1038C24.016 17.1038 23.776 17.0558 23.776 16.9358C23.752 16.8158 24.088 16.8638 24.064 16.5518C24.04 16.3598 23.824 16.2638 23.632 16.2638C22.96 16.2638 22.504 17.1518 22.576 17.8958C22.6 18.1838 22.744 18.4718 23.008 18.4718C23.224 18.4718 23.536 18.1598 23.656 17.7278C23.728 17.4398 24.016 17.2238 24.232 17.2238C24.328 17.2238 24.424 17.2718 24.424 17.3918C24.424 17.4638 24.4 17.5838 24.304 18.0638C24.256 18.2558 24.256 18.4478 24.256 18.5678C24.304 18.8558 24.424 19.0478 24.544 19.1678C24.592 19.2158 24.616 19.2638 24.616 19.2878C24.616 19.3598 24.568 19.4318 24.472 19.4318C24.448 19.4318 24.4 19.4318 24.376 19.4078C23.848 19.1918 23.632 18.8318 23.584 18.5198C23.392 18.7838 23.128 18.9038 22.84 18.9038C22.384 18.9038 21.928 18.4958 21.856 17.9678C21.832 17.7518 21.856 17.5118 21.928 17.2958C21.736 17.4158 21.544 17.4878 21.352 17.4878C21.28 17.4878 21.232 17.4878 21.184 17.4878C20.728 18.1358 20.248 18.5918 19.888 18.8078C19.744 18.8798 19.6 18.9278 19.504 18.9278C19.432 18.9278 19.336 18.9038 19.288 18.8318C19.144 18.7358 19.072 18.4958 19.048 18.2078ZM20.68 16.0478C20.68 16.3358 20.824 16.6238 20.992 16.8158C21.064 16.6238 21.112 16.4318 21.112 16.2398C21.112 15.8798 20.968 15.7118 20.872 15.7118C20.728 15.7118 20.68 15.9038 20.68 16.0478Z" fill="white"/>
</g>
<path d="M52.6302 21.6265C51.8636 21.9976 50.8627 22.1831 49.6273 22.1831C48.016 22.1831 46.7489 21.7095 45.826 20.7622C44.9032 19.8149 44.4418 18.5527 44.4418 16.9756C44.4418 15.2959 44.9593 13.9336 45.9945 12.8887C47.0345 11.8438 48.3822 11.3213 50.0375 11.3213C51.0629 11.3213 51.9271 11.4507 52.6302 11.7095V13.9873C51.9271 13.5674 51.1263 13.3574 50.2279 13.3574C49.2416 13.3574 48.4457 13.6675 47.8402 14.2876C47.2347 14.9077 46.932 15.7476 46.932 16.8071C46.932 17.8228 47.2176 18.6333 47.7889 19.2388C48.3602 19.8394 49.1293 20.1396 50.0961 20.1396C51.0189 20.1396 51.8636 19.915 52.6302 19.4658V21.6265ZM60.9181 22H58.7282V20.9233H58.6989C58.196 21.7632 57.4513 22.1831 56.465 22.1831C55.7375 22.1831 55.1637 21.978 54.7438 21.5679C54.3288 21.1528 54.1213 20.6011 54.1213 19.9126C54.1213 18.4575 54.9831 17.6177 56.7067 17.3931L58.7429 17.1221C58.7429 16.3018 58.2985 15.8916 57.4098 15.8916C56.5163 15.8916 55.6667 16.1577 54.861 16.6899V14.9468C55.1833 14.7808 55.6227 14.6343 56.1794 14.5073C56.7409 14.3804 57.2512 14.3169 57.7101 14.3169C59.8488 14.3169 60.9181 15.3838 60.9181 17.5176V22ZM58.7429 18.9531V18.4478L57.3805 18.6235C56.6286 18.7212 56.2526 19.0605 56.2526 19.6416C56.2526 19.9053 56.3429 20.1226 56.5236 20.2935C56.7092 20.4595 56.9582 20.5425 57.2707 20.5425C57.7053 20.5425 58.0593 20.3936 58.3327 20.0957C58.6061 19.793 58.7429 19.4121 58.7429 18.9531ZM70.1729 22H67.8657V17.8325C67.8657 16.6704 67.4507 16.0894 66.6206 16.0894C66.2202 16.0894 65.8906 16.2432 65.6318 16.5508C65.373 16.8584 65.2437 17.249 65.2437 17.7227V22H62.9292V14.5H65.2437V15.6865H65.2729C65.8247 14.7734 66.6279 14.3169 67.6826 14.3169C69.3428 14.3169 70.1729 15.3472 70.1729 17.4077V22ZM79.3323 14.5L76.5418 22H73.9051L71.2464 14.5H73.722L75.0257 19.1216C75.1722 19.644 75.2576 20.0884 75.2821 20.4546H75.3113C75.3455 20.1079 75.4359 19.6782 75.5823 19.1655L76.9154 14.5H79.3323ZM86.507 22H84.317V20.9233H84.2877C83.7848 21.7632 83.0402 22.1831 82.0538 22.1831C81.3263 22.1831 80.7526 21.978 80.3327 21.5679C79.9176 21.1528 79.7101 20.6011 79.7101 19.9126C79.7101 18.4575 80.5719 17.6177 82.2955 17.3931L84.3317 17.1221C84.3317 16.3018 83.8873 15.8916 82.9987 15.8916C82.1051 15.8916 81.2555 16.1577 80.4498 16.6899V14.9468C80.7721 14.7808 81.2116 14.6343 81.7682 14.5073C82.3297 14.3804 82.84 14.3169 83.299 14.3169C85.4376 14.3169 86.507 15.3838 86.507 17.5176V22ZM84.3317 18.9531V18.4478L82.9694 18.6235C82.2174 18.7212 81.8414 19.0605 81.8414 19.6416C81.8414 19.9053 81.9318 20.1226 82.1124 20.2935C82.298 20.4595 82.547 20.5425 82.8595 20.5425C83.2941 20.5425 83.6481 20.3936 83.9215 20.0957C84.195 19.793 84.3317 19.4121 84.3317 18.9531Z" fill="white"/>
<path d="M95 0H5C2.23858 0 0 2.23858 0 5V27C0 29.7614 2.23858 32 5 32H95C97.7614 32 100 29.7614 100 27V5C100 2.23858 97.7614 0 95 0Z" fill="url(#paint0_linear)"/>
<defs>
<linearGradient id="paint0_linear" x1="0" y1="0" x2="0" y2="32" gradientUnits="userSpaceOnUse">
<stop stop-color="#BBBBBB" stop-opacity="0.1"/>
<stop offset="1" stop-opacity="0.1"/>
</linearGradient>
<clipPath id="clip0">
<rect width="24" height="24" fill="white" transform="translate(4 4)"/>
</clipPath>
</defs>
</svg>
