<svg width="100" height="32" viewBox="0 0 100 32" fill="none" xmlns="http://www.w3.org/2000/svg">
<path d="M95 0H31V32H95C97.7614 32 100 29.7614 100 27V5C100 2.23858 97.7614 0 95 0Z" fill="#0F1418"/>
<path d="M5 0.5H31.5V31.5H5C2.51472 31.5 0.5 29.4853 0.5 27V5C0.5 2.51472 2.51472 0.5 5 0.5Z" fill="#959595" stroke="#959595"/>
<path fill-rule="evenodd" clip-rule="evenodd" d="M19.3835 4.05474L5.50867 5.03488C4.38992 5.12784 4 5.828 4 6.66736V21.2253C4 21.8794 4.243 22.4384 4.8275 23.1856L8.08908 27.245C8.62483 27.8987 9.11167 28.0386 10.1347 27.9918L26.2474 27.0584C27.6102 26.9655 28 26.3585 28 25.332V8.954C28 8.42336 27.7812 8.27008 27.136 7.81824C27.1005 7.79344 27.0637 7.76768 27.0256 7.74088L22.5966 4.7547C21.5257 4.00845 21.0873 3.91454 19.3835 4.05474ZM10.5 8.68536C9.1845 8.77056 8.88558 8.78992 8.1385 8.20768L6.23875 6.76128C6.045 6.57424 6.14217 6.34096 6.62867 6.29464L19.9678 5.36136C21.0871 5.26784 21.6712 5.64176 22.1095 5.96816L24.3974 7.5548C24.4948 7.60128 24.7378 7.88088 24.4456 7.88088L10.6698 8.6744L10.5 8.68536ZM8.96558 25.1918V11.2874C8.96558 10.681 9.16033 10.4008 9.74417 10.3537L25.5652 9.46744C26.1018 9.4208 26.3448 9.74768 26.3448 10.3537V24.1648C26.3448 24.7718 26.2472 25.2858 25.3706 25.332L10.2311 26.1724C9.35492 26.2186 8.96558 25.939 8.96558 25.1918ZM23.9113 12.0333C24.0084 12.4537 23.9113 12.8736 23.4723 12.9209L22.7428 13.0603V23.3254C22.1095 23.6519 21.5255 23.8386 21.0388 23.8386C20.2597 23.8386 20.0645 23.6051 19.4809 22.9056L14.7094 15.72V22.6723L16.2192 22.9991C16.2192 22.9991 16.2193 23.8386 15.0012 23.8386L11.643 24.0255C11.5454 23.8386 11.643 23.3724 11.9836 23.279L12.8599 23.046V13.8538L11.6432 13.7602C11.5456 13.3399 11.7886 12.7338 12.4707 12.6868L16.0733 12.4538L21.0388 19.733V13.2936L19.7728 13.1542C19.6756 12.6403 20.0645 12.2672 20.5514 12.2209L23.9113 12.0333Z" fill="black"/>
<path d="M51.0095 22H48.6218L44.2932 15.4009C44.0393 15.0151 43.8635 14.7246 43.7658 14.5293H43.7365C43.7756 14.9004 43.7951 15.4668 43.7951 16.2285V22H41.5612V11.4971H44.1101L48.2775 17.8911C48.468 18.1792 48.6437 18.4648 48.8049 18.748H48.8342C48.7951 18.5039 48.7756 18.0229 48.7756 17.3052V11.4971H51.0095V22ZM57.2027 22.1831C55.9527 22.1831 54.9688 21.834 54.251 21.1357C53.5381 20.4326 53.1817 19.4805 53.1817 18.2793C53.1817 17.0391 53.5528 16.0698 54.2949 15.3716C55.0371 14.6685 56.0405 14.3169 57.3052 14.3169C58.5503 14.3169 59.5269 14.6685 60.2349 15.3716C60.9429 16.0698 61.2969 16.9951 61.2969 18.1475C61.2969 19.3926 60.9307 20.3765 60.1983 21.0991C59.4707 21.8218 58.4722 22.1831 57.2027 22.1831ZM57.2612 16.0894C56.7144 16.0894 56.2896 16.2773 55.9868 16.6533C55.6841 17.0293 55.5327 17.5615 55.5327 18.25C55.5327 19.6904 56.1138 20.4106 57.2759 20.4106C58.3843 20.4106 58.9385 19.6709 58.9385 18.1914C58.9385 16.79 58.3794 16.0894 57.2612 16.0894ZM67.5121 21.9121C67.1703 22.0928 66.6551 22.1831 65.9666 22.1831C64.3358 22.1831 63.5204 21.3359 63.5204 19.6416V16.2065H62.3045V14.5H63.5204V12.8813L65.8275 12.2222V14.5H67.5121V16.2065H65.8275V19.2388C65.8275 20.02 66.1375 20.4106 66.7577 20.4106C67.0018 20.4106 67.2533 20.3398 67.5121 20.1982V21.9121ZM70.175 13.3135C69.7843 13.3135 69.4645 13.1987 69.2155 12.9692C68.9665 12.7349 68.842 12.4492 68.842 12.1123C68.842 11.7656 68.9665 11.4824 69.2155 11.2627C69.4645 11.043 69.7843 10.9331 70.175 10.9331C70.5705 10.9331 70.8903 11.043 71.1344 11.2627C71.3835 11.4824 71.508 11.7656 71.508 12.1123C71.508 12.4639 71.3835 12.752 71.1344 12.9766C70.8903 13.2012 70.5705 13.3135 70.175 13.3135ZM71.3175 22H69.0031V14.5H71.3175V22ZM77.02 22.1831C75.77 22.1831 74.7861 21.834 74.0683 21.1357C73.3554 20.4326 72.999 19.4805 72.999 18.2793C72.999 17.0391 73.3701 16.0698 74.1123 15.3716C74.8545 14.6685 75.8579 14.3169 77.1225 14.3169C78.3677 14.3169 79.3442 14.6685 80.0522 15.3716C80.7602 16.0698 81.1142 16.9951 81.1142 18.1475C81.1142 19.3926 80.748 20.3765 80.0156 21.0991C79.2881 21.8218 78.2895 22.1831 77.02 22.1831ZM77.0786 16.0894C76.5317 16.0894 76.1069 16.2773 75.8042 16.6533C75.5014 17.0293 75.3501 17.5615 75.3501 18.25C75.3501 19.6904 75.9311 20.4106 77.0932 20.4106C78.2016 20.4106 78.7558 19.6709 78.7558 18.1914C78.7558 16.79 78.1968 16.0894 77.0786 16.0894ZM90.0394 22H87.7322V17.8325C87.7322 16.6704 87.3172 16.0894 86.4871 16.0894C86.0867 16.0894 85.7571 16.2432 85.4983 16.5508C85.2396 16.8584 85.1102 17.249 85.1102 17.7227V22H82.7957V14.5H85.1102V15.6865H85.1395C85.6912 14.7734 86.4944 14.3169 87.5491 14.3169C89.2093 14.3169 90.0394 15.3472 90.0394 17.4077V22Z" fill="white"/>
<path d="M95 0H5C2.23858 0 0 2.23858 0 5V27C0 29.7614 2.23858 32 5 32H95C97.7614 32 100 29.7614 100 27V5C100 2.23858 97.7614 0 95 0Z" fill="url(#paint0_linear)"/>
<defs>
<linearGradient id="paint0_linear" x1="0" y1="0" x2="0" y2="32" gradientUnits="userSpaceOnUse">
<stop stop-color="#BBBBBB" stop-opacity="0.1"/>
<stop offset="1" stop-opacity="0.1"/>
</linearGradient>
</defs>
</svg>
