<svg width="100" height="32" viewBox="0 0 100 32" fill="none" xmlns="http://www.w3.org/2000/svg">
<path d="M95 0H31V32H95C97.7614 32 100 29.7614 100 27V5C100 2.23858 97.7614 0 95 0Z" fill="#0F1418"/>
<path d="M5 0.5H31.5V31.5H5C2.51472 31.5 0.5 29.4853 0.5 27V5C0.5 2.51472 2.51472 0.5 5 0.5Z" fill="#D9D9D9" stroke="#D9D9D9"/>
<path fill-rule="evenodd" clip-rule="evenodd" d="M19.0608 4.05474L4.73838 5.03488C3.58354 5.12784 3.18104 5.828 3.18104 6.66736V21.2253C3.18104 21.8794 3.43188 22.4384 4.03524 23.1856L7.40203 27.245C7.95506 27.8987 8.4576 28.0386 9.5136 27.9918L26.1461 27.0584C27.5528 26.9655 27.9552 26.3585 27.9552 25.332V8.954C27.9552 8.42336 27.7293 8.27008 27.0634 7.81824C27.0267 7.79344 26.9887 7.76768 26.9494 7.74088L22.3775 4.7547C21.2721 4.00845 20.8196 3.91454 19.0608 4.05474ZM9.89072 8.68536C8.53278 8.77056 8.22422 8.78992 7.45304 8.20768L5.49201 6.76128C5.29201 6.57424 5.39231 6.34096 5.8945 6.29464L19.6639 5.36136C20.8193 5.26784 21.4222 5.64176 21.8747 5.96816L24.2364 7.5548C24.337 7.60128 24.5878 7.88088 24.2862 7.88088L10.066 8.6744L9.89072 8.68536ZM8.30681 25.1918V11.2874C8.30681 10.681 8.50784 10.4008 9.1105 10.3537L25.4419 9.46744C25.9958 9.4208 26.2467 9.74768 26.2467 10.3537V24.1648C26.2467 24.7718 26.1459 25.2858 25.241 25.332L9.61313 26.1724C8.7087 26.2186 8.30681 25.939 8.30681 25.1918ZM23.7347 12.0333C23.8349 12.4537 23.7347 12.8736 23.2815 12.9209L22.5285 13.0603V23.3254C21.8747 23.6519 21.2719 23.8386 20.7695 23.8386C19.9652 23.8386 19.7638 23.6051 19.1613 22.9056L14.2359 15.72V22.6723L15.7945 22.9991C15.7945 22.9991 15.7945 23.8386 14.5371 23.8386L11.0706 24.0255C10.9699 23.8386 11.0706 23.3724 11.4222 23.279L12.3268 23.046V13.8538L11.0708 13.7602C10.97 13.3399 11.2209 12.7338 11.925 12.6868L15.6438 12.4538L20.7695 19.733V13.2936L19.4627 13.1542C19.3623 12.6403 19.7638 12.2672 20.2664 12.2209L23.7347 12.0333Z" fill="black"/>
<path d="M51.0095 22H48.6218L44.2932 15.4009C44.0393 15.0151 43.8635 14.7246 43.7658 14.5293H43.7365C43.7756 14.9004 43.7951 15.4668 43.7951 16.2285V22H41.5612V11.4971H44.1101L48.2775 17.8911C48.468 18.1792 48.6437 18.4648 48.8049 18.748H48.8342C48.7951 18.5039 48.7756 18.0229 48.7756 17.3052V11.4971H51.0095V22ZM57.2027 22.1831C55.9527 22.1831 54.9688 21.834 54.251 21.1357C53.5381 20.4326 53.1817 19.4805 53.1817 18.2793C53.1817 17.0391 53.5528 16.0698 54.2949 15.3716C55.0371 14.6685 56.0405 14.3169 57.3052 14.3169C58.5503 14.3169 59.5269 14.6685 60.2349 15.3716C60.9429 16.0698 61.2969 16.9951 61.2969 18.1475C61.2969 19.3926 60.9307 20.3765 60.1983 21.0991C59.4707 21.8218 58.4722 22.1831 57.2027 22.1831ZM57.2612 16.0894C56.7144 16.0894 56.2896 16.2773 55.9868 16.6533C55.6841 17.0293 55.5327 17.5615 55.5327 18.25C55.5327 19.6904 56.1138 20.4106 57.2759 20.4106C58.3843 20.4106 58.9385 19.6709 58.9385 18.1914C58.9385 16.79 58.3794 16.0894 57.2612 16.0894ZM67.5121 21.9121C67.1703 22.0928 66.6551 22.1831 65.9666 22.1831C64.3358 22.1831 63.5204 21.3359 63.5204 19.6416V16.2065H62.3045V14.5H63.5204V12.8813L65.8275 12.2222V14.5H67.5121V16.2065H65.8275V19.2388C65.8275 20.02 66.1375 20.4106 66.7577 20.4106C67.0018 20.4106 67.2533 20.3398 67.5121 20.1982V21.9121ZM70.175 13.3135C69.7843 13.3135 69.4645 13.1987 69.2155 12.9692C68.9665 12.7349 68.842 12.4492 68.842 12.1123C68.842 11.7656 68.9665 11.4824 69.2155 11.2627C69.4645 11.043 69.7843 10.9331 70.175 10.9331C70.5705 10.9331 70.8903 11.043 71.1344 11.2627C71.3835 11.4824 71.508 11.7656 71.508 12.1123C71.508 12.4639 71.3835 12.752 71.1344 12.9766C70.8903 13.2012 70.5705 13.3135 70.175 13.3135ZM71.3175 22H69.0031V14.5H71.3175V22ZM77.02 22.1831C75.77 22.1831 74.7861 21.834 74.0683 21.1357C73.3554 20.4326 72.999 19.4805 72.999 18.2793C72.999 17.0391 73.3701 16.0698 74.1123 15.3716C74.8545 14.6685 75.8579 14.3169 77.1225 14.3169C78.3677 14.3169 79.3442 14.6685 80.0522 15.3716C80.7602 16.0698 81.1142 16.9951 81.1142 18.1475C81.1142 19.3926 80.748 20.3765 80.0156 21.0991C79.2881 21.8218 78.2895 22.1831 77.02 22.1831ZM77.0786 16.0894C76.5317 16.0894 76.1069 16.2773 75.8042 16.6533C75.5014 17.0293 75.3501 17.5615 75.3501 18.25C75.3501 19.6904 75.9311 20.4106 77.0932 20.4106C78.2016 20.4106 78.7558 19.6709 78.7558 18.1914C78.7558 16.79 78.1968 16.0894 77.0786 16.0894ZM90.0394 22H87.7322V17.8325C87.7322 16.6704 87.3172 16.0894 86.4871 16.0894C86.0867 16.0894 85.7571 16.2432 85.4983 16.5508C85.2396 16.8584 85.1102 17.249 85.1102 17.7227V22H82.7957V14.5H85.1102V15.6865H85.1395C85.6912 14.7734 86.4944 14.3169 87.5491 14.3169C89.2093 14.3169 90.0394 15.3472 90.0394 17.4077V22Z" fill="white"/>
<path d="M95 0H5C2.23858 0 0 2.23858 0 5V27C0 29.7614 2.23858 32 5 32H95C97.7614 32 100 29.7614 100 27V5C100 2.23858 97.7614 0 95 0Z" fill="url(#paint0_linear)"/>
<defs>
<linearGradient id="paint0_linear" x1="0" y1="0" x2="0" y2="32" gradientUnits="userSpaceOnUse">
<stop stop-color="#BBBBBB" stop-opacity="0.1"/>
<stop offset="1" stop-opacity="0.1"/>
</linearGradient>
</defs>
</svg>
